HIERARCHY
ROOT Hips
{
	OFFSET 0.000000 0.000000 0.000000
	CHANNELS 6 Xposition Yposition Zposition Xrotation Yrotation Zrotation
	JOINT LeftUpLeg_virtual
	{
		OFFSET 0.000000 0.000000 0.000000
		CHANNELS 3 Xrotation Yrotation Zrotation
		JOINT LeftUpLeg
		{
			OFFSET 15.427100 -6.655098 0.678600
			CHANNELS 3 Xrotation Yrotation Zrotation
			JOINT LeftLeg
			{
				OFFSET 4.081073 -39.591068 13.024000
				CHANNELS 3 Xrotation Yrotation Zrotation
				JOINT LeftFoot
				{
					OFFSET -4.081074 -37.707932 -15.979700
					CHANNELS 3 Xrotation Yrotation Zrotation
					JOINT LeftToeBase
					{
						OFFSET 5.346399 -15.068900 20.645000
						CHANNELS 3 Xrotation Yrotation Zrotation
						JOINT LeftToe_End
						{
							OFFSET 2.754700 0.931300 11.300900
							CHANNELS 3 Xrotation Yrotation Zrotation
							End Site
							{
								OFFSET 0 0 0
							}
						}
					}
				}
			}
		}
	}
	JOINT RightUpLeg_virtual
	{
		OFFSET 0.000000 0.000000 0.000000
		CHANNELS 3 Xrotation Yrotation Zrotation
		JOINT RightUpLeg
		{
			OFFSET -15.569500 -6.655098 0.678600
			CHANNELS 3 Xrotation Yrotation Zrotation
			JOINT RightLeg
			{
				OFFSET -4.081825 -39.591045 13.023800
				CHANNELS 3 Xrotation Yrotation Zrotation
				JOINT RightFoot
				{
					OFFSET 4.081824 -37.707954 -15.979600
					CHANNELS 3 Xrotation Yrotation Zrotation
					JOINT RightToeBase
					{
						OFFSET -5.346400 -15.068900 20.645000
						CHANNELS 3 Xrotation Yrotation Zrotation
						JOINT RightToe_End
						{
							OFFSET -2.754700 0.931300 11.300900
							CHANNELS 3 Xrotation Yrotation Zrotation
							End Site
							{
								OFFSET 0 0 0
							}
						}
					}
				}
			}
		}
	}
	JOINT Spine_virtual
	{
		OFFSET 0.000000 0.000000 0.000000
		CHANNELS 3 Xrotation Yrotation Zrotation
		JOINT Spine
		{
			OFFSET -0.279200 12.230698 -2.892100
			CHANNELS 3 Xrotation Yrotation Zrotation
			JOINT Spine1
			{
				OFFSET -0.232667 10.192268 -1.242267
				CHANNELS 3 Xrotation Yrotation Zrotation
				JOINT Spine1_split
				{
					OFFSET -0.232667 10.192268 -1.242267
					CHANNELS 3 Xrotation Yrotation Zrotation
					JOINT Spine2
					{
						OFFSET -0.232667 10.192268 -1.242267
						CHANNELS 3 Xrotation Yrotation Zrotation
						JOINT Neck_virtual
						{
							OFFSET 0.000000 0.000000 0.000000
							CHANNELS 3 Xrotation Yrotation Zrotation
							JOINT Neck
							{
								OFFSET -0.418800 17.814194 8.416900
								CHANNELS 3 Xrotation Yrotation Zrotation
								JOINT Head
								{
									OFFSET 0.000000 7.031097 3.806800
									CHANNELS 3 Xrotation Yrotation Zrotation
									JOINT HeadTop_End
									{
										OFFSET 0.000000 24.646606 12.978600
										CHANNELS 3 Xrotation Yrotation Zrotation
										End Site
										{
											OFFSET 0 0 0
										}
									}
								}
							}
						}
						JOINT LeftShoulder_virtual
						{
							OFFSET 0.000000 0.000000 0.000000
							CHANNELS 3 Xrotation Yrotation Zrotation
							JOINT LeftShoulder
							{
								OFFSET 8.476499 7.247704 -3.868750
								CHANNELS 3 Xrotation Yrotation Zrotation
								JOINT LeftShoulder_split
								{
									OFFSET 8.476499 7.247704 -3.868750
									CHANNELS 3 Xrotation Yrotation Zrotation
									JOINT LeftArm
									{
										OFFSET 9.308998 -2.777710 0.208600
										CHANNELS 3 Xrotation Yrotation Zrotation
										JOINT LeftForeArm
										{
											OFFSET 29.972298 0.000000 0.000000
											CHANNELS 3 Xrotation Yrotation Zrotation
											JOINT LeftHand
											{
												OFFSET 26.026505 0.000000 0.000000
												CHANNELS 3 Xrotation Yrotation Zrotation
												End Site
												{
													OFFSET 0 0 0
												}
											}
										}
									}
								}
							}
						}
						JOINT RightShoulder_virtual
						{
							OFFSET 0.000000 0.000000 0.000000
							CHANNELS 3 Xrotation Yrotation Zrotation
							JOINT RightShoulder
							{
								OFFSET -7.570500 7.247704 -3.868750
								CHANNELS 3 Xrotation Yrotation Zrotation
								JOINT RightShoulder_split
								{
									OFFSET -7.570500 7.247704 -3.868750
									CHANNELS 3 Xrotation Yrotation Zrotation
									JOINT RightArm
									{
										OFFSET -9.308998 -2.777710 0.208500
										CHANNELS 3 Xrotation Yrotation Zrotation
										JOINT RightForeArm
										{
											OFFSET -29.972300 0.000000 0.000000
											CHANNELS 3 Xrotation Yrotation Zrotation
											JOINT RightHand
											{
												OFFSET -26.026505 0.000000 0.000000
												CHANNELS 3 Xrotation Yrotation Zrotation
												End Site
												{
													OFFSET 0 0 0
												}
											}
										}
									}
								}
							}
						}
					}
				}
			}
		}
	}
}
MOTION
Frames: 7
Frame Time: 0.03333333
-1.985198 81.679237 13.759338 0.000000 0.000000 0.000000 -23.074838 -5.180712 -2.505299 -91.542232 19.310553 27.779122 122.391553 -11.588357 6.413890 -31.133416 -4.771323 13.581457 -46.495294 -2.668696 -1.962211 0.000000 0.000000 0.000000 -23.074838 -5.180712 -2.505299 -128.081948 -24.207382 -12.907332 125.245971 -10.771728 -18.601332 -9.765199 -6.621416 13.548232 -38.850164 6.007504 10.674979 0.000000 0.000000 0.000000 -23.074838 -5.180712 -2.505299 7.701530 -1.335425 0.371551 15.374075 -1.676406 -0.551058 0.000000 0.000000 0.000000 0.000000 0.000000 0.000000 15.374075 -1.676402 -0.551059 -11.803033 2.538408 0.513533 -20.543587 1.060034 1.922751 0.000000 0.000000 0.000000 15.374075 -1.676402 -0.551059 -0.117971 -1.799433 36.289430 0.000000 0.000000 0.000000 -52.783220 -25.523882 -11.661694 -14.599478 -27.801868 2.187903 0.000000 0.000000 0.000000 15.374075 -1.676402 -0.551059 9.813670 24.196314 -37.946062 0.000000 0.000000 0.000000 -46.242184 23.161320 -4.673689 -22.075469 26.224115 3.020030 0.000000 0.000000 0.000000 
-2.037271 81.314606 13.958710 0.000000 0.000000 0.000000 -22.392994 -5.144197 -2.546543 -92.473535 18.896693 27.335399 122.867481 -11.101601 6.438179 -31.778558 -4.608536 13.221689 -46.159798 -2.756068 -2.168694 0.000000 0.000000 0.000000 -22.392994 -5.144197 -2.546543 -128.343230 -24.050001 -11.421408 125.504753 -11.082008 -18.688518 -10.476016 -7.162480 14.518474 -38.305415 5.515454 10.350254 0.000000 0.000000 0.000000 -22.392994 -5.144197 -2.546543 7.533386 -1.259590 0.467649 15.039636 -1.534572 -0.418301 0.000000 0.000000 0.000000 0.000000 0.000000 0.000000 15.039639 -1.534572 -0.418302 -17.769912 2.710621 0.790330 -16.597925 1.605600 1.335111 0.000000 0.000000 0.000000 15.039639 -1.534572 -0.418302 -0.794089 -0.411283 37.037654 0.000000 0.000000 0.000000 -53.107350 -25.119629 -13.105107 -14.758172 -28.996694 2.732919 0.000000 0.000000 0.000000 15.039639 -1.534572 -0.418302 9.273469 22.311035 -38.387897 0.000000 0.000000 0.000000 -46.870899 23.501720 -2.942158 -21.212585 27.007456 1.920310 0.000000 0.000000 0.000000 
-2.112189 81.300056 14.148262 0.000000 0.000000 0.000000 -21.383311 -5.090704 -2.623929 -93.290432 17.836450 27.017285 122.980029 -10.929242 6.094318 -31.561488 -4.395059 12.958805 -46.431483 -2.676306 -2.635134 0.000000 0.000000 0.000000 -21.383311 -5.090704 -2.623929 -128.639373 -23.087580 -10.784829 125.608395 -10.680448 -18.135826 -10.467455 -7.183329 14.703201 -38.572592 4.945657 10.564814 0.000000 0.000000 0.000000 -21.383311 -5.090704 -2.623929 7.149089 -1.198228 0.560148 14.274079 -1.394822 -0.228714 0.000000 0.000000 0.000000 0.000000 0.000000 0.000000 14.274076 -1.394823 -0.228715 -23.605305 2.824561 1.341884 -12.221444 2.150334 0.584533 0.000000 0.000000 0.000000 14.274076 -1.394823 -0.228715 -1.351298 0.585398 37.896570 0.000000 0.000000 0.000000 -54.106310 -24.663998 -16.084365 -14.545344 -29.884154 3.360782 0.000000 0.000000 0.000000 14.274076 -1.394823 -0.228715 8.659224 20.554174 -38.660769 0.000000 0.000000 0.000000 -48.041105 24.002521 0.198531 -20.014609 28.209936 0.737827 0.000000 0.000000 0.000000 
-2.198732 81.808411 14.309261 0.000000 0.000000 0.000000 -20.315515 -5.081622 -2.790282 -93.693127 15.880497 27.031085 122.517966 -11.206233 5.265944 -29.737667 -4.019234 12.710569 -48.146512 -2.506471 -3.460481 0.000000 0.000000 0.000000 -20.315515 -5.081622 -2.790282 -128.717702 -21.130817 -11.417559 125.431643 -9.328438 -16.763263 -9.191988 -6.449137 13.927049 -40.197186 4.385903 11.524884 0.000000 0.000000 0.000000 -20.315515 -5.081622 -2.790282 6.600563 -1.165135 0.642220 13.181101 -1.275150 0.029299 0.000000 0.000000 0.000000 0.000000 0.000000 0.000000 13.181101 -1.275146 0.029299 -28.539143 2.791948 2.010081 -7.542241 2.563847 -0.228353 0.000000 0.000000 0.000000 13.181101 -1.275146 0.029299 -1.573340 0.806860 38.796871 0.000000 0.000000 0.000000 -55.559856 -23.610606 -20.463426 -13.992647 -30.797022 4.188675 0.000000 0.000000 0.000000 13.181101 -1.275146 0.029299 8.245018 19.384439 -38.889881 0.000000 0.000000 0.000000 -49.481244 24.303630 4.418802 -18.794242 29.794125 -0.558946 0.000000 0.000000 0.000000 
-2.249152 82.983215 14.250630 0.000000 0.000000 0.000000 -20.038785 -5.135728 -3.101150 -92.915209 13.343910 27.496491 121.183948 -11.850359 4.054234 -25.785139 -3.443945 12.402296 -51.749236 -2.405041 -4.542486 0.000000 0.000000 0.000000 -20.038785 -5.135728 -3.101150 -127.231207 -18.244798 -13.791848 124.662728 -6.692846 -14.456529 -6.637410 -4.932995 12.003779 -43.397434 4.064402 13.210416 0.000000 0.000000 0.000000 -20.038785 -5.135728 -3.101150 6.172973 -1.160366 0.685669 12.331305 -1.188796 0.330882 0.000000 0.000000 0.000000 0.000000 0.000000 0.000000 12.331294 -1.188789 0.330881 -31.678021 2.558240 2.544754 -2.949761 2.705116 -0.921438 0.000000 0.000000 0.000000 12.331294 -1.188789 0.330881 -1.275762 0.062679 39.435129 0.000000 0.000000 0.000000 -56.937003 -21.631120 -25.178321 -13.343854 -32.183807 5.250926 0.000000 0.000000 0.000000 12.331294 -1.188789 0.330881 8.219828 19.112901 -39.109902 0.000000 0.000000 0.000000 -50.738610 24.159315 8.711649 -17.936835 31.430823 -1.919360 0.000000 0.000000 0.000000 
-2.181492 84.891724 13.572872 0.000000 0.000000 0.000000 -21.649809 -5.193738 -3.582157 -89.909653 11.262990 28.236477 118.670247 -12.369079 2.854088 -19.986098 -2.779321 12.008010 -56.577889 -2.476427 -5.582934 0.000000 0.000000 0.000000 -21.649809 -5.193738 -3.582157 -121.819593 -15.228264 -17.726412 122.720550 -2.830857 -11.439687 -3.742167 -3.082991 9.084384 -47.649012 4.212234 15.261964 0.000000 0.000000 0.000000 -21.649809 -5.193738 -3.582157 6.317254 -1.152645 0.656368 12.626648 -1.129670 0.613264 0.000000 0.000000 0.000000 0.000000 0.000000 0.000000 12.626648 -1.129668 0.613263 -32.525193 2.181567 2.774181 0.886726 2.532700 -1.329374 0.000000 0.000000 0.000000 12.626648 -1.129668 0.613263 -0.516014 -1.365472 39.257885 0.000000 0.000000 0.000000 -57.919355 -19.070474 -28.772367 -12.790876 -34.687823 6.600273 0.000000 0.000000 0.000000 12.626648 -1.129668 0.613263 8.437772 19.559375 -39.055302 0.000000 0.000000 0.000000 -51.660720 23.779800 11.868931 -17.479989 32.931081 -3.320791 0.000000 0.000000 0.000000 
-1.928793 87.654175 11.875267 0.000000 0.000000 0.000000 -25.621124 -5.164277 -4.224253 -83.922808 10.657867 28.878689 114.620191 -12.253815 2.056879 -13.145628 -2.150423 11.614861 -61.370097 -2.647158 -6.415682 0.000000 0.000000 0.000000 -25.621124 -5.164277 -4.224253 -111.185945 -13.606991 -21.801919 118.913880 1.217237 -8.447166 -1.284074 -1.587212 5.971529 -52.144553 4.772922 17.315539 0.000000 0.000000 0.000000 -25.621124 -5.164277 -4.224253 7.337274 -1.099951 0.558229 14.673838 -1.076007 0.818298 0.000000 0.000000 0.000000 0.000000 0.000000 0.000000 14.673847 -1.076010 0.818298 -31.236354 1.815640 2.737698 3.236764 2.155826 -1.413135 0.000000 0.000000 0.000000 14.673847 -1.076010 0.818298 0.349714 -2.840395 37.692966 0.000000 0.000000 0.000000 -58.946568 -16.925552 -30.604749 -12.214874 -38.578001 8.350512 0.000000 0.000000 0.000000 14.673847 -1.076010 0.818298 8.450938 20.232856 -38.178408 0.000000 0.000000 0.000000 -52.703748 23.830562 13.355977 -17.176659 34.347888 -4.788405 0.000000 0.000000 0.000000 
